<svg width="9" height="9" viewBox="0 0 9 9" fill="none" xmlns="http://www.w3.org/2000/svg">
<path d="M4.18262 0.422683C4.24427 0.232957 4.51268 0.232958 4.57432 0.422683L5.44186 3.09268C5.46943 3.17753 5.5485 3.23497 5.63771 3.23497H8.44511C8.6446 3.23497 8.72754 3.49025 8.56615 3.6075L6.29492 5.25765C6.22274 5.31009 6.19254 5.40304 6.22011 5.48789L7.08764 8.15788C7.14929 8.34761 6.93214 8.50538 6.77075 8.38812L4.49952 6.73797C4.42734 6.68553 4.32961 6.68553 4.25743 6.73797L1.9862 8.38812C1.82481 8.50538 1.60766 8.34761 1.6693 8.15788L2.53684 5.48789C2.56441 5.40304 2.53421 5.31009 2.46203 5.25765L0.190796 3.6075C0.0294055 3.49025 0.112349 3.23497 0.311838 3.23497H3.11924C3.20845 3.23497 3.28752 3.17753 3.31509 3.09268L4.18262 0.422683Z" fill="#F1CC4A"/>
</svg>
